Coordinates
version=1
nRows=7
nColumns=63
inDegrees=yes

Units are S.I. units (second, meters, Newtons, ...)
If the header above contains a line with 'inDegrees', this indicates whether rotational values are in degrees (yes) or radians (no).

endheader
time	pelvis_tilt	pelvis_list	pelvis_rotation	pelvis_tx	pelvis_ty	pelvis_tz	hip_flexion_r	hip_adduction_r	hip_rotation_r	knee_angle_r	knee_angle_r_beta	ankle_angle_r	subtalar_angle_r	mtp_angle_r	hip_flexion_l	hip_adduction_l	hip_rotation_l	knee_angle_l	knee_angle_l_beta	ankle_angle_l	subtalar_angle_l	mtp_angle_l	L5_S1_Flex_Ext	L5_S1_Lat_Bending	L5_S1_axial_rotation	L4_L5_Flex_Ext	L4_L5_Lat_Bending	L4_L5_axial_rotation	L3_L4_Flex_Ext	L3_L4_Lat_Bending	L3_L4_axial_rotation	L2_L3_Flex_Ext	L2_L3_Lat_Bending	L2_L3_axial_rotation	L1_L2_Flex_Ext	L1_L2_Lat_Bending	L1_L2_axial_rotation	L1_T12_Flex_Ext	L1_T12_Lat_Bending	L1_T12_axial_rotation	Abs_r3	Abs_r2	Abs_r1	Abs_t1	Abs_t2	neck_flexion	neck_bending	neck_rotation	arm_flex_r	arm_add_r	arm_rot_r	elbow_flex_r	pro_sup_r	wrist_flex_r	wrist_dev_r	arm_flex_l	arm_add_l	arm_rot_l	elbow_flex_l	pro_sup_l	wrist_flex_l	wrist_dev_l
      4.90000000	      5.29781810	     -0.76545190	    173.95452249	      2.46235868	      0.89096186	      0.58752702	     12.50894207	      0.62001676	     -7.14770147	     19.30971819	      0.33701816	     21.43924712	     -1.00802534	      0.00000000	      9.46849235	      0.62504999	     -4.67461877	     13.19090400	      0.23022471	     15.64713452	    -18.40944860	      0.00000000	      0.00220336	     -0.18337546	     -0.91856205	      0.00409187	     -0.24388936	     -0.97597218	      0.00361991	     -0.44585910	     -0.97597218	      0.00251822	     -0.44585910	     -0.80374179	      0.00204604	     -0.37393924	     -0.74633166	      0.00125900	     -0.28404859	     -0.68892154	      0.01573841	     -2.07437990	     -5.10876654	      0.00000000	      0.00000000	      0.00000000	      0.00000000	      0.00000000	     -5.46557187	     -1.34913852	     -9.44323351	     26.86116844	     49.63855777	      0.00000000	      5.00000014	    -11.69453817	     -8.51355572	      6.13339108	     23.08461119	     53.22652284	      0.00000000	      5.00000014
      4.93333333	      5.28475081	     -0.72955656	    174.19651084	      2.46217301	      0.89105460	      0.58755399	     12.42740452	      0.62276148	     -7.14259453	     19.18666261	      0.33487044	     21.07675610	     -1.53868810	      0.00000000	      9.59772275	      0.57264504	     -4.38509599	     13.30757418	      0.23226098	     15.77174710	    -18.51199368	      0.00000000	      0.00277587	     -0.18692587	     -0.96774878	      0.00515507	     -0.24861140	     -1.02823308	      0.00456047	     -0.45449155	     -1.02823308	      0.00317254	     -0.45449155	     -0.84678019	      0.00257767	     -0.38117923	     -0.78629589	      0.00158613	     -0.28954817	     -0.72581159	      0.01982775	     -2.11454278	     -5.38232841	      0.00000000	      0.00000000	      0.00000000	      0.00000000	      0.00000000	     -5.45986472	     -1.29962498	     -8.96110095	     26.72442593	     49.32947403	      0.00000000	      5.00000014	    -11.86305572	     -8.59526504	      5.95915168	     23.37379635	     52.61429900	      0.00000000	      5.00000014
      4.96666667	      5.25957168	     -0.67152792	    174.09290997	      2.46200486	      0.89105786	      0.58730815	     12.69450651	      0.53477048	     -7.46078962	     19.79900112	      0.34555776	     21.03825831	     -1.15392050	      0.00000000	      9.70722620	      0.42824197	     -4.54870462	     13.63602434	      0.23799352	     16.08624215	    -18.48584634	      0.00000000	      0.00235441	     -0.18529327	     -0.95238436	      0.00437237	     -0.24644005	     -1.01190839	      0.00386806	     -0.45052206	     -1.01190839	      0.00269085	     -0.45052206	     -0.83333632	      0.00218630	     -0.37785004	     -0.77381230	      0.00134531	     -0.28701928	     -0.71428827	      0.01681731	     -2.09607454	     -5.29687612	      0.00000000	      0.00000000	      0.00000000	      0.00000000	      0.00000000	     -5.44127710	     -1.28056940	     -8.74429349	     26.56692132	     49.12805865	      0.00000000	      5.00000014	    -11.95016691	     -8.59545490	      5.76065048	     23.47833808	     52.22784008	      0.00000000	      5.00000014
      5.00000000	      5.24097628	     -0.62763082	    174.17092003	      2.46170844	      0.89099803	      0.58738699	     13.00980836	      0.26700315	     -8.59346811	     20.60267971	      0.35958460	     21.37516363	      0.12026361	      0.00000000	      9.63684678	      0.36708406	     -4.46315488	     13.64710466	      0.23818691	     16.17824840	    -18.45481341	      0.00000000	      0.00234147	     -0.18351135	     -0.97562495	      0.00434833	     -0.24407009	     -1.03660151	      0.00384679	     -0.44618948	     -1.03660151	      0.00267606	     -0.44618948	     -0.85367183	      0.00217428	     -0.37421633	     -0.79269527	      0.00133791	     -0.28425907	     -0.73171871	      0.01672485	     -2.07591704	     -5.42613329	      0.00000000	      0.00000000	      0.00000000	      0.00000000	      0.00000000	     -5.46693836	     -1.30739550	     -8.46685299	     26.55953982	     48.76021107	      0.00000000	      5.00000014	    -12.04821505	     -8.52354403	      5.38361159	     23.50747396	     51.53969410	      0.00000000	      5.00000014
      5.03333333	      5.22252811	     -0.62252539	    174.32861928	      2.46127538	      0.89089671	      0.58763631	     13.19195995	     -0.21700455	    -10.77188064	     21.24648702	      0.37082115	     21.97731874	      2.83246187	      0.00000000	      9.53226826	      0.38410406	     -4.43741215	     13.59669073	      0.23730702	     16.16873003	    -18.41198178	      0.00000000	      0.00306641	     -0.18528437	     -1.01962006	      0.00569463	     -0.24642821	     -1.08334631	      0.00503781	     -0.45050042	     -1.08334631	      0.00350460	     -0.45050042	     -0.89216755	      0.00284747	     -0.37783189	     -0.82844130	      0.00175215	     -0.28700549	     -0.76471504	      0.02190307	     -2.09597385	     -5.67082087	      0.00000000	      0.00000000	      0.00000000	      0.00000000	      0.00000000	     -5.46904639	     -1.55032340	     -7.39142305	     26.51182349	     49.70507171	      0.00000000	      5.00000014	    -12.22167356	     -8.45940401	      4.66216883	     23.66134561	     53.20072011	      0.00000000	      5.00000014
      5.06666667	      5.21155811	     -0.65106954	    174.21621336	      2.46093811	      0.89080208	      0.58751964	     13.28310842	     -0.30811554	    -10.94395027	     21.47695952	      0.37484366	     22.01920551	      3.03971805	      0.00000000	      9.36046238	      0.40441550	     -4.87426815	     13.37190486	      0.23338377	     16.15954306	    -18.31317368	      0.00000000	      0.00355675	     -0.18949828	     -1.01578365	      0.00660524	     -0.25203271	     -1.07927013	      0.00584338	     -0.46074612	     -1.07927013	      0.00406501	     -0.46074612	     -0.88881069	      0.00330280	     -0.38642489	     -0.82532421	      0.00203233	     -0.29353284	     -0.76183774	      0.02540551	     -2.14364244	     -5.64948391	      0.00000000	      0.00000000	      0.00000000	      0.00000000	      0.00000000	     -5.53136088	     -1.47153758	     -7.87630991	     26.68439061	     50.38093737	      0.00000000	      5.00000014	    -12.41800491	     -8.35109342	      3.72141786	     23.85507670	     54.37870028	      0.00000000	      5.00000014
      5.10000000	      5.22678164	     -0.54196477	    174.26795984	      2.46060822	      0.89071852	      0.58774355	     13.11069141	     -0.17102476	    -11.03981664	     21.14644943	      0.36907517	     21.94152335	      2.94372629	      0.00000000	      9.30913500	      0.32041899	     -5.13840538	     13.31274038	      0.23235115	     16.26611448	    -18.26251897	      0.00000000	      0.00325070	     -0.17583580	     -1.03720858	      0.00603687	     -0.23386161	     -1.10203412	      0.00534057	     -0.42752715	     -1.10203412	      0.00371522	     -0.42752715	     -0.90755751	      0.00301860	     -0.35856435	     -0.84273197	      0.00185745	     -0.27236965	     -0.77790644	      0.02321941	     -1.98908968	     -5.76864296	      0.00000000	      0.00000000	      0.00000000	      0.00000000	      0.00000000	     -5.60783507	     -1.56644482	     -7.87622756	     26.92053820	     50.39478853	      0.00000000	      5.00000014	    -12.55549242	     -8.12600232	      2.74906171	     23.95139143	     54.29294804	      0.00000000	      5.00000014
